<?xml version="1.0" encoding="utf-8"?>
<!-- Svg Vector Icons : http://www.onlinewebfonts.com/icon -->
<!DOCTYPE svg PUBLIC "-//W3C//DTD SVG 1.1//EN" "http://www.w3.org/Graphics/SVG/1.1/DTD/svg11.dtd">
<svg version="1.1" xmlns="http://www.w3.org/2000/svg" xmlns:xlink="http://www.w3.org/1999/xlink" x="0px" y="0px" viewBox="0 0 1000 1000" enable-background="new 0 0 1000 1000" xml:space="preserve">
<metadata> Svg Vector Icons : http://www.onlinewebfonts.com/icon </metadata>
<g><g transform="translate(0.000000,511.000000) scale(0.100000,-0.100000)"><path d="M8922.7,4889.4C6274.1,3363.1,1148.1,402.5,984.5,305.4C700.7,134.1,618.9,21.6,606.1-216.1c-10.2-194.3,23-301.7,132.9-432.1c69-81.8,158.5-130.4,1707.8-925.5l603.3-309.3l2958,3195.7c1626,1758.9,2963.1,3195.7,2968.2,3195.7c10.2,0-199.4-283.8-3042.3-4139.1C4842.4-1113.5,3957.8-2333,3968-2343.2c69-61.4,2970.7-1513.5,3067.9-1534c158.5-35.8,306.8-10.2,465.3,79.2c168.7,97.2,268.4,250.6,322.1,493.4c107.4,498.5,1572.3,8055.8,1572.3,8119.8c0,92-71.6,176.4-166.2,191.7C9168.1,5019.8,9104.2,4994.2,8922.7,4889.4z"/><path d="M2697.4-2450.6c0-40.9,1086.6-2073.4,1147.9-2145c143.2-173.9,393.7-242.9,570.1-158.5c89.5,43.5,393.7,355.4,805.3,823.2c102.3,117.6,186.6,219.9,186.6,230.1c0,7.7-600.8,291.4-1332,628.9C2653.9-2417.4,2697.4-2435.3,2697.4-2450.6z"/></g></g>
</svg>